# xmcd
# 
# Track frame offsets:
#     150
#     21707
#     42377
#     65232
#     83372
#     98562
#     115805
#     145527
#     161730
#     177747
#     200272
#     216907
# 
# Disc length: 3196
# 
# Revision: 1
# Processed by: cddbd v1.5.2PL0 Copyright (c) Steve Scherf et al.
# Submitted via: BonkEnc v1.0.8
# 
DISCID=ab0c7a0c
DTITLE=安則眞実 - Believin' - Chaka Jazz In New York
DYEAR=2004
DGENRE=Vocal
TTITLE0=My Favorite Things
TTITLE1=Love You Madly
TTITLE2=I'll Walk Alone
TTITLE3=Time After Time
TTITLE4=The Lady Is A Tramp
TTITLE5=Ain't Misbehavin'
TTITLE6=Body And Soul
TTITLE7=Watermelpn Man
TTITLE8=Just In Time
TTITLE9=Lover Man
TTITLE10=Bye Bye Blackbird
TTITLE11=Lucky To Be Me
EXTD=YEAR: 2004
EXTT0=
EXTT1=
EXTT2=
EXTT3=
EXTT4=
EXTT5=
EXTT6=
EXTT7=
EXTT8=
EXTT9=
EXTT10=
EXTT11=
PLAYORDER=
